<?xml version="1.0" encoding="utf-8"?>
<!-- Generator: Adobe Illustrator 27.7.0, SVG Export Plug-In . SVG Version: 6.00 Build 0)  -->
<svg version="1.1" id="Warstwa_1" xmlns="http://www.w3.org/2000/svg" xmlns:xlink="http://www.w3.org/1999/xlink" x="0px" y="0px"
	 viewBox="0 0 259.3 69.8" style="enable-background:new 0 0 259.3 69.8;" xml:space="preserve">
<path d="M116.3,61.3v-1.4h-5.7v9.9h2v-4.3h3.6V64h-3.6v-2.7L116.3,61.3L116.3,61.3z M259.3,61.4v-1.5h-7.2v1.5h2.6v8.3h2v-8.3
	L259.3,61.4L259.3,61.4z M244.6,62.7c0,0.9-0.7,1.5-2,1.5h-1v-3h0.9C243.9,61.3,244.6,61.7,244.6,62.7L244.6,62.7z M247.1,69.8
	l-1.4-3.4c-0.3-0.8-0.5-1.2-1.3-1.5c1.3-0.3,2.1-1.2,2.1-2.4c0-1.7-1.2-2.5-3.6-2.5h-3.2v9.9h1.9v-4.1h0.6c0.9,0,1.4,0.3,1.7,1.2
	l1.1,3L247.1,69.8L247.1,69.8z M233.1,69.8v-1.5h-4.2v-2.9h3.9v-1.4h-3.9v-2.6h4.1v-1.4h-6v9.9L233.1,69.8L233.1,69.8z M218.8,63
	c0,1.1-0.7,1.7-2,1.7h-0.8v-3.3h0.9C218.2,61.3,218.8,61.9,218.8,63L218.8,63L218.8,63z M220.8,63c0-2.1-1.2-3.1-3.8-3.1h-2.9v9.9
	h1.9V66h1.1C219.5,66,220.8,64.8,220.8,63L220.8,63z M208.3,69.8l-3.4-5.2l3.1-4.7h-2.1l-2.1,3.7l-2.1-3.7h-2.3l3.1,4.7l-3.5,5.2
	h2.1l2.4-4.1l2.4,4.1H208.3L208.3,69.8z M193.5,69.8v-1.5h-4.2v-2.9h3.9v-1.4h-3.9v-2.6h4.1v-1.4h-6v9.9
	C187.3,69.8,193.5,69.8,193.5,69.8z M170,62.8c0,0.9-0.7,1.5-2,1.5h-1v-3h0.9C169.3,61.3,170,61.7,170,62.8L170,62.8z M172.5,69.8
	l-1.4-3.4c-0.3-0.8-0.5-1.2-1.3-1.5c1.3-0.3,2.1-1.2,2.1-2.4c0-1.7-1.2-2.5-3.6-2.5h-3.2v9.9h1.9v-4.1h0.6c0.9,0,1.4,0.3,1.7,1.2
	l1.1,3L172.5,69.8L172.5,69.8z M156.7,64.8c0,2.3-1.1,3.7-2.7,3.7s-2.7-1.4-2.7-3.7s1.1-3.7,2.7-3.7S156.7,62.5,156.7,64.8
	L156.7,64.8z M158.7,64.8c0-3.2-1.8-5.1-4.7-5.1s-4.7,1.9-4.7,5.1s1.8,5.1,4.7,5.1S158.7,68,158.7,64.8L158.7,64.8z M141.3,64.8
	c0,2.3-1.1,3.7-2.7,3.7s-2.7-1.4-2.7-3.7s1.1-3.7,2.7-3.7S141.3,62.5,141.3,64.8L141.3,64.8z M143.3,64.8c0-3.2-1.8-5.1-4.7-5.1
	s-4.7,1.9-4.7,5.1s1.8,5.1,4.7,5.1S143.3,68,143.3,64.8L143.3,64.8z M128.4,69.8v-1.5h-3.9v-8.3h-1.9v9.9H128.4z"/>
<polygon points="0,61.3 102.6,61.3 102.6,59.8 0,59.8 0,61.3 "/>
<path d="M26.2,17.6l-5.4,17.2h10.7L26.2,17.6L26.2,17.6L26.2,17.6z M37.8,53.6l-2.7-7.8H17.2l-2.7,7.8H0L20.8,0h10.8l20.8,53.6H37.8
	z"/>
<path d="M76.7,23.5c-7.6,0-9.2,2.6-9.2,10v20.1H55.3V13.1h11.4v5.5c2-4.1,5.4-6.1,10.3-6.1v11L76.7,23.5L76.7,23.5z"/>
<path d="M103.5,23.1c-5.6,0-9.9,4.4-9.9,10.2s4.3,9.8,9.5,9.8c6.2,0,10.6-4.3,10.6-10C113.7,27.5,109.2,23.1,103.5,23.1L103.5,23.1
	L103.5,23.1z M118.6,49.1c-3.6,3.2-7.8,4.8-12.8,4.8s-8.5-1.3-12.1-4.8v4.5H82.1V0h12.1v17.6c2.5-3.2,6.2-5.1,11.4-5.1
	s9.8,1.9,13.6,5.6c4.3,4.1,6.5,9.3,6.5,15.1C125.7,39.5,123.3,45,118.6,49.1L118.6,49.1L118.6,49.1z"/>
<polygon points="131.9,41.1 143.9,41.1 143.9,13.1 131.9,13.1 131.9,41.1 "/>
<polygon points="166.4,22 166.4,53.6 154.2,53.6 154.2,22 149,22 149,13.1 154.2,13.1 154.2,0 166.4,0 166.4,13.1 171.8,13.1 
	171.8,22 166.4,22 "/>
<path d="M195.4,23.4c-5.3,0-9.7,4.5-9.7,10c0,5.6,4.4,10,9.7,10s9.7-4.4,9.7-10C205,27.9,200.7,23.4,195.4,23.4L195.4,23.4z
	 M210.8,48.3c-4.2,4.2-9.4,6.3-15.5,6.3s-11.3-2.1-15.4-6.5c-3.9-4.1-6-9.3-6-14.9s2.2-10.9,6.2-14.9c4.1-4.1,9.5-6.3,15.1-6.3
	c5.9,0,11,2,15.1,5.9c4.3,4.1,6.7,9.7,6.7,15.2C217,39.2,214.9,44.3,210.8,48.3L210.8,48.3L210.8,48.3z"/>
<path d="M247.4,53.6V31.7c0-5.7-1.2-8.2-5.9-8.2s-7.2,2.8-7.2,8.2v21.9h-11.8V13.1H234l-0.1,5.4c2.5-4.1,6.3-6.2,11.7-6.2
	c8.4,0,13.9,5.3,13.9,14.6v26.7L247.4,53.6L247.4,53.6z"/>
<polygon points="131.9,53.6 143.8,53.6 143.8,44.2 131.9,44.2 131.9,53.6 "/>
</svg>
